<svg width="23" height="30" viewBox="0 0 23 30" fill="none" xmlns="http://www.w3.org/2000/svg">
<rect width="23" height="30" fill="#E5E5E5"/>
<g id="React.js - Desktop/mobile/landscape ">
<rect width="8156" height="2188" transform="translate(-746 -792)" fill="#C7C2C2"/>
<g id="Group 27985">
<g id="Group 27726">
<g id="Rectangle 27824" opacity="0.7" filter="url(#filter0_d_0_1)">
<path d="M-614 -350H1114V527H-614V-350Z" fill="black"/>
<path d="M-613.5 -349.5H1113.5V526.5H-613.5V-349.5Z" stroke="black"/>
</g>
</g>
<g id="Group 27981">
<g id="Rectangle 27824_2" filter="url(#filter1_d_0_1)">
<rect x="-25" y="-30" width="550" height="248" rx="5.90908" fill="white"/>
</g>
<g id="Group 27984">
<g id="Group 27978">
<g id="Group 27581">
<g id="Group 26836">
<path id="Vector" d="M21.8031 5.03418C16.9758 5.03418 11.973 0.287403 11.9235 0.239849C11.591 -0.0799497 11.0842 -0.0799497 10.7517 0.239849C10.7019 0.287773 5.71229 5.03418 0.872124 5.03418C0.390479 5.03418 0 5.4484 0 5.95934V17.039C0 26.0146 6.29301 28.0222 11.0265 29.9392C11.1267 29.9798 11.2321 30 11.3376 30C11.4431 30 11.5485 29.9797 11.6487 29.9392C18.2858 27.2513 22.6752 24.6374 22.6752 17.039V5.95934C22.6752 5.4484 22.2847 5.03418 21.8031 5.03418Z" fill="#538ADD"/>
</g>
<path id="Vector_2" d="M11.1648 8C9.98429 8 8.96434 8.45898 8.32818 9.20312C7.69202 9.94727 7.42713 10.9121 7.42713 11.9531V12.5H9.029V11.9531C9.029 11.1641 9.23758 10.543 9.57965 10.1406C9.92171 9.73828 10.3868 9.5 11.1648 9.5C11.9449 9.5 12.408 9.72461 12.75 10.125C13.0921 10.5254 13.3007 11.1543 13.3007 11.9531V12.5H14.9025V11.9531C14.9025 10.9062 14.621 9.93164 13.9848 9.1875C13.3486 8.44336 12.3433 8 11.1648 8ZM7.42713 13C6.54276 13 5.82526 13.6719 5.82526 14.5V19.5C5.82526 20.3281 6.54276 21 7.42713 21H14.9025C15.7869 21 16.5044 20.3281 16.5044 19.5V14.5C16.5044 13.6719 15.7869 13 14.9025 13H7.42713ZM11.1648 15.5C11.7551 15.5 12.2327 15.9473 12.2327 16.5C12.2327 16.8691 12.0179 17.1855 11.6988 17.3594V18.5C11.6988 18.7754 11.4589 19 11.1648 19C10.8707 19 10.6309 18.7754 10.6309 18.5V17.3594C10.3118 17.1855 10.0969 16.8691 10.0969 16.5C10.0969 15.9473 10.5746 15.5 11.1648 15.5Z" fill="white"/>
<path id="Vector 9 (Stroke)" d="M15.0368 15.6386C15.2726 15.3869 15.2707 14.9949 15.0325 14.7454L14.1309 13.8011C14.0076 13.6719 13.8364 13.5992 13.6577 13.6C13.479 13.6009 13.3086 13.6752 13.1864 13.8056L10.5099 16.6631L9.3661 15.4763C9.2421 15.3476 9.07062 15.2757 8.89194 15.2774C8.71326 15.279 8.54316 15.3542 8.42161 15.4852L7.53283 16.4429C7.29822 16.6957 7.30191 17.0878 7.54124 17.3361L10.0613 19.951C10.1849 20.0793 10.3558 20.1512 10.5339 20.15C10.7121 20.1487 10.8819 20.0744 11.0037 19.9444L15.0368 15.6386Z" fill="#538ADD" stroke="white" stroke-width="1.3" stroke-linecap="square" stroke-linejoin="round"/>
</g>
</g>
</g>
</g>
</g>
</g>
<defs>
<filter id="filter0_d_0_1" x="-618" y="-350" width="1736" height="885" filterUnits="userSpaceOnUse" color-interpolation-filters="sRGB">
<feFlood flood-opacity="0" result="BackgroundImageFix"/>
<feColorMatrix in="SourceAlpha" type="matrix" values="0 0 0 0 0 0 0 0 0 0 0 0 0 0 0 0 0 0 127 0" result="hardAlpha"/>
<feOffset dy="4"/>
<feGaussianBlur stdDeviation="2"/>
<feComposite in2="hardAlpha" operator="out"/>
<feColorMatrix type="matrix" values="0 0 0 0 0 0 0 0 0 0 0 0 0 0 0 0 0 0 0.25 0"/>
<feBlend mode="normal" in2="BackgroundImageFix" result="effect1_dropShadow_0_1"/>
<feBlend mode="normal" in="SourceGraphic" in2="effect1_dropShadow_0_1" result="shape"/>
</filter>
<filter id="filter1_d_0_1" x="-28.9394" y="-30" width="557.879" height="255.879" filterUnits="userSpaceOnUse" color-interpolation-filters="sRGB">
<feFlood flood-opacity="0" result="BackgroundImageFix"/>
<feColorMatrix in="SourceAlpha" type="matrix" values="0 0 0 0 0 0 0 0 0 0 0 0 0 0 0 0 0 0 127 0" result="hardAlpha"/>
<feOffset dy="3.93939"/>
<feGaussianBlur stdDeviation="1.9697"/>
<feComposite in2="hardAlpha" operator="out"/>
<feColorMatrix type="matrix" values="0 0 0 0 0 0 0 0 0 0 0 0 0 0 0 0 0 0 0.25 0"/>
<feBlend mode="normal" in2="BackgroundImageFix" result="effect1_dropShadow_0_1"/>
<feBlend mode="normal" in="SourceGraphic" in2="effect1_dropShadow_0_1" result="shape"/>
</filter>
</defs>
</svg>
